<svg xmlns="http://www.w3.org/2000/svg" width="32" height="32" viewBox="0 0 32 32">
  <rect width="32" height="32" fill="#1a1a2e"/>
  <!-- row 0: cols 3,9 -->
  <rect x="9" y="6" width="2" height="2" fill="#ff66cc"/>
  <rect x="21" y="6" width="2" height="2" fill="#ff66cc"/>
  <!-- row 1: cols 4,8 -->
  <rect x="11" y="8" width="2" height="2" fill="#ff66cc"/>
  <rect x="19" y="8" width="2" height="2" fill="#ff66cc"/>
  <!-- row 2: cols 2-10 -->
  <rect x="7" y="10" width="18" height="2" fill="#ff66cc"/>
  <!-- row 3: cols 1-2, 4-8, 10-11 -->
  <rect x="5" y="12" width="4" height="2" fill="#ff66cc"/>
  <rect x="11" y="12" width="10" height="2" fill="#ff66cc"/>
  <rect x="23" y="12" width="4" height="2" fill="#ff66cc"/>
  <!-- row 4: cols 0-12 -->
  <rect x="3" y="14" width="26" height="2" fill="#ff66cc"/>
  <!-- row 5: cols 0, 2-10, 12 -->
  <rect x="3" y="16" width="2" height="2" fill="#ff66cc"/>
  <rect x="7" y="16" width="18" height="2" fill="#ff66cc"/>
  <rect x="27" y="16" width="2" height="2" fill="#ff66cc"/>
  <!-- row 6: cols 0, 2, 10, 12 -->
  <rect x="3" y="18" width="2" height="2" fill="#ff66cc"/>
  <rect x="7" y="18" width="2" height="2" fill="#ff66cc"/>
  <rect x="23" y="18" width="2" height="2" fill="#ff66cc"/>
  <rect x="27" y="18" width="2" height="2" fill="#ff66cc"/>
  <!-- row 7: cols 3-4, 8-9 -->
  <rect x="9" y="20" width="4" height="2" fill="#ff66cc"/>
  <rect x="19" y="20" width="4" height="2" fill="#ff66cc"/>
  <!-- row 8: cols 2-3, 9-10 -->
  <rect x="7" y="22" width="4" height="2" fill="#ff66cc"/>
  <rect x="21" y="22" width="4" height="2" fill="#ff66cc"/>
</svg>
