<svg xmlns="http://www.w3.org/2000/svg" width="512" height="512" viewBox="0 0 512 512">
  <rect width="512" height="512" rx="64" fill="#1a1a2e"/>
  <!-- row 0: cols 3,9 -->
  <rect x="123" y="66" width="38" height="38" fill="#ff66cc"/>
  <rect x="351" y="66" width="38" height="38" fill="#ff66cc"/>
  <!-- row 1: cols 4,8 -->
  <rect x="161" y="104" width="38" height="38" fill="#ff66cc"/>
  <rect x="313" y="104" width="38" height="38" fill="#ff66cc"/>
  <!-- row 2: cols 2-10 -->
  <rect x="85" y="142" width="342" height="38" fill="#ff66cc"/>
  <!-- row 3: cols 1-2, 4-8, 10-11 -->
  <rect x="47" y="180" width="76" height="38" fill="#ff66cc"/>
  <rect x="161" y="180" width="190" height="38" fill="#ff66cc"/>
  <rect x="389" y="180" width="76" height="38" fill="#ff66cc"/>
  <!-- row 4: cols 0-12 -->
  <rect x="9" y="218" width="494" height="38" fill="#ff66cc"/>
  <!-- row 5: cols 0, 2-10, 12 -->
  <rect x="9" y="256" width="38" height="38" fill="#ff66cc"/>
  <rect x="85" y="256" width="342" height="38" fill="#ff66cc"/>
  <rect x="465" y="256" width="38" height="38" fill="#ff66cc"/>
  <!-- row 6: cols 0, 2, 10, 12 -->
  <rect x="9" y="294" width="38" height="38" fill="#ff66cc"/>
  <rect x="85" y="294" width="38" height="38" fill="#ff66cc"/>
  <rect x="389" y="294" width="38" height="38" fill="#ff66cc"/>
  <rect x="465" y="294" width="38" height="38" fill="#ff66cc"/>
  <!-- row 7: cols 3-4, 8-9 -->
  <rect x="123" y="332" width="76" height="38" fill="#ff66cc"/>
  <rect x="313" y="332" width="76" height="38" fill="#ff66cc"/>
  <!-- row 8: cols 2-3, 9-10 -->
  <rect x="85" y="370" width="76" height="38" fill="#ff66cc"/>
  <rect x="351" y="370" width="76" height="38" fill="#ff66cc"/>
</svg>
